<mxfile host="app.diagrams.net" agent="Mozilla/5.0 (Windows NT 10.0; Win64; x64) AppleWebKit/537.36 (KHTML, like Gecko) Chrome/134.0.0.0 Safari/537.36" version="26.2.8">
  <diagram name="Page-1" id="Yu-JP59BiCappGFXED2v">
    <mxGraphModel dx="1006" dy="657" grid="1" gridSize="10" guides="1" tooltips="1" connect="1" arrows="1" fold="1" page="1" pageScale="1" pageWidth="850" pageHeight="1100" math="0" shadow="0">
      <root>
        <mxCell id="0" />
        <mxCell id="1" parent="0" />
        <mxCell id="n2Gzz4PYrOyp2X8KNBNQ-3" value="" style="edgeStyle=orthogonalEdgeStyle;rounded=0;orthogonalLoop=1;jettySize=auto;html=1;" edge="1" parent="1" source="n2Gzz4PYrOyp2X8KNBNQ-1" target="n2Gzz4PYrOyp2X8KNBNQ-2">
          <mxGeometry relative="1" as="geometry" />
        </mxCell>
        <mxCell id="n2Gzz4PYrOyp2X8KNBNQ-1" value="Inicio" style="ellipse;whiteSpace=wrap;html=1;" vertex="1" parent="1">
          <mxGeometry x="365" y="20" width="120" height="80" as="geometry" />
        </mxCell>
        <mxCell id="n2Gzz4PYrOyp2X8KNBNQ-5" value="" style="edgeStyle=orthogonalEdgeStyle;rounded=0;orthogonalLoop=1;jettySize=auto;html=1;" edge="1" parent="1" source="n2Gzz4PYrOyp2X8KNBNQ-2" target="n2Gzz4PYrOyp2X8KNBNQ-4">
          <mxGeometry relative="1" as="geometry" />
        </mxCell>
        <mxCell id="n2Gzz4PYrOyp2X8KNBNQ-2" value="Crear variables para cantidad de deuda y opciones del usuario" style="rounded=0;whiteSpace=wrap;html=1;" vertex="1" parent="1">
          <mxGeometry x="365" y="120" width="120" height="60" as="geometry" />
        </mxCell>
        <mxCell id="n2Gzz4PYrOyp2X8KNBNQ-8" value="" style="edgeStyle=orthogonalEdgeStyle;rounded=0;orthogonalLoop=1;jettySize=auto;html=1;" edge="1" parent="1" source="n2Gzz4PYrOyp2X8KNBNQ-4" target="n2Gzz4PYrOyp2X8KNBNQ-7">
          <mxGeometry relative="1" as="geometry" />
        </mxCell>
        <mxCell id="n2Gzz4PYrOyp2X8KNBNQ-4" value="Mostrar menu con 4 opciones al usuario" style="rounded=0;whiteSpace=wrap;html=1;" vertex="1" parent="1">
          <mxGeometry x="365" y="200" width="120" height="60" as="geometry" />
        </mxCell>
        <mxCell id="n2Gzz4PYrOyp2X8KNBNQ-10" value="" style="edgeStyle=orthogonalEdgeStyle;rounded=0;orthogonalLoop=1;jettySize=auto;html=1;" edge="1" parent="1" source="n2Gzz4PYrOyp2X8KNBNQ-7" target="n2Gzz4PYrOyp2X8KNBNQ-9">
          <mxGeometry relative="1" as="geometry" />
        </mxCell>
        <mxCell id="n2Gzz4PYrOyp2X8KNBNQ-13" value="" style="edgeStyle=orthogonalEdgeStyle;rounded=0;orthogonalLoop=1;jettySize=auto;html=1;" edge="1" parent="1" source="n2Gzz4PYrOyp2X8KNBNQ-7" target="n2Gzz4PYrOyp2X8KNBNQ-12">
          <mxGeometry relative="1" as="geometry" />
        </mxCell>
        <mxCell id="n2Gzz4PYrOyp2X8KNBNQ-7" value="Eligio la opcion 1?" style="rhombus;whiteSpace=wrap;html=1;" vertex="1" parent="1">
          <mxGeometry x="352" y="280" width="146" height="130" as="geometry" />
        </mxCell>
        <mxCell id="n2Gzz4PYrOyp2X8KNBNQ-9" value="Solicitar cantidad de deuda y mostrar mensaje de dato guardado, reg menu" style="rounded=0;whiteSpace=wrap;html=1;" vertex="1" parent="1">
          <mxGeometry x="570" y="315" width="120" height="60" as="geometry" />
        </mxCell>
        <mxCell id="n2Gzz4PYrOyp2X8KNBNQ-11" value="SI" style="text;html=1;align=center;verticalAlign=middle;resizable=0;points=[];autosize=1;strokeColor=none;fillColor=none;" vertex="1" parent="1">
          <mxGeometry x="505" y="318" width="30" height="30" as="geometry" />
        </mxCell>
        <mxCell id="n2Gzz4PYrOyp2X8KNBNQ-20" value="" style="edgeStyle=orthogonalEdgeStyle;rounded=0;orthogonalLoop=1;jettySize=auto;html=1;entryX=0;entryY=0.5;entryDx=0;entryDy=0;" edge="1" parent="1" source="n2Gzz4PYrOyp2X8KNBNQ-12" target="n2Gzz4PYrOyp2X8KNBNQ-21">
          <mxGeometry relative="1" as="geometry">
            <mxPoint x="580" y="515" as="targetPoint" />
          </mxGeometry>
        </mxCell>
        <mxCell id="n2Gzz4PYrOyp2X8KNBNQ-26" value="" style="edgeStyle=orthogonalEdgeStyle;rounded=0;orthogonalLoop=1;jettySize=auto;html=1;" edge="1" parent="1" source="n2Gzz4PYrOyp2X8KNBNQ-12" target="n2Gzz4PYrOyp2X8KNBNQ-25">
          <mxGeometry relative="1" as="geometry" />
        </mxCell>
        <mxCell id="n2Gzz4PYrOyp2X8KNBNQ-12" value="Eligio la opcion 2?" style="rhombus;whiteSpace=wrap;html=1;" vertex="1" parent="1">
          <mxGeometry x="352" y="450" width="146" height="130" as="geometry" />
        </mxCell>
        <mxCell id="n2Gzz4PYrOyp2X8KNBNQ-14" value="NO" style="text;html=1;align=center;verticalAlign=middle;resizable=0;points=[];autosize=1;strokeColor=none;fillColor=none;" vertex="1" parent="1">
          <mxGeometry x="390" y="408" width="40" height="30" as="geometry" />
        </mxCell>
        <mxCell id="n2Gzz4PYrOyp2X8KNBNQ-16" value="" style="endArrow=classic;html=1;rounded=0;entryX=1;entryY=1;entryDx=0;entryDy=0;" edge="1" parent="1" target="n2Gzz4PYrOyp2X8KNBNQ-4">
          <mxGeometry width="50" height="50" relative="1" as="geometry">
            <mxPoint x="720" y="250" as="sourcePoint" />
            <mxPoint x="480" y="270" as="targetPoint" />
          </mxGeometry>
        </mxCell>
        <mxCell id="n2Gzz4PYrOyp2X8KNBNQ-17" value="" style="endArrow=none;html=1;rounded=0;" edge="1" parent="1">
          <mxGeometry width="50" height="50" relative="1" as="geometry">
            <mxPoint x="720" y="350" as="sourcePoint" />
            <mxPoint x="720" y="250" as="targetPoint" />
          </mxGeometry>
        </mxCell>
        <mxCell id="n2Gzz4PYrOyp2X8KNBNQ-18" value="" style="endArrow=none;html=1;rounded=0;entryX=1;entryY=0.5;entryDx=0;entryDy=0;" edge="1" parent="1" target="n2Gzz4PYrOyp2X8KNBNQ-9">
          <mxGeometry width="50" height="50" relative="1" as="geometry">
            <mxPoint x="720" y="350" as="sourcePoint" />
            <mxPoint x="480" y="270" as="targetPoint" />
          </mxGeometry>
        </mxCell>
        <mxCell id="n2Gzz4PYrOyp2X8KNBNQ-29" value="" style="edgeStyle=orthogonalEdgeStyle;rounded=0;orthogonalLoop=1;jettySize=auto;html=1;" edge="1" parent="1" source="n2Gzz4PYrOyp2X8KNBNQ-21" target="n2Gzz4PYrOyp2X8KNBNQ-28">
          <mxGeometry relative="1" as="geometry" />
        </mxCell>
        <mxCell id="n2Gzz4PYrOyp2X8KNBNQ-37" value="" style="edgeStyle=orthogonalEdgeStyle;rounded=0;orthogonalLoop=1;jettySize=auto;html=1;" edge="1" parent="1" source="n2Gzz4PYrOyp2X8KNBNQ-21" target="n2Gzz4PYrOyp2X8KNBNQ-36">
          <mxGeometry relative="1" as="geometry" />
        </mxCell>
        <mxCell id="n2Gzz4PYrOyp2X8KNBNQ-21" value="Hay un monto de deuda guardado por la opcion 1?" style="rhombus;whiteSpace=wrap;html=1;" vertex="1" parent="1">
          <mxGeometry x="580" y="440" width="170" height="150" as="geometry" />
        </mxCell>
        <mxCell id="n2Gzz4PYrOyp2X8KNBNQ-23" value="SI" style="text;html=1;align=center;verticalAlign=middle;resizable=0;points=[];autosize=1;strokeColor=none;fillColor=none;" vertex="1" parent="1">
          <mxGeometry x="505" y="490" width="30" height="30" as="geometry" />
        </mxCell>
        <mxCell id="n2Gzz4PYrOyp2X8KNBNQ-40" value="" style="edgeStyle=orthogonalEdgeStyle;rounded=0;orthogonalLoop=1;jettySize=auto;html=1;" edge="1" parent="1" source="n2Gzz4PYrOyp2X8KNBNQ-25" target="n2Gzz4PYrOyp2X8KNBNQ-27">
          <mxGeometry relative="1" as="geometry" />
        </mxCell>
        <mxCell id="n2Gzz4PYrOyp2X8KNBNQ-52" value="" style="edgeStyle=orthogonalEdgeStyle;rounded=0;orthogonalLoop=1;jettySize=auto;html=1;" edge="1" parent="1" source="n2Gzz4PYrOyp2X8KNBNQ-25" target="n2Gzz4PYrOyp2X8KNBNQ-51">
          <mxGeometry relative="1" as="geometry" />
        </mxCell>
        <mxCell id="n2Gzz4PYrOyp2X8KNBNQ-25" value="Eligio la opcion 3?" style="rhombus;whiteSpace=wrap;html=1;" vertex="1" parent="1">
          <mxGeometry x="352" y="840" width="146" height="130" as="geometry" />
        </mxCell>
        <mxCell id="n2Gzz4PYrOyp2X8KNBNQ-47" value="" style="edgeStyle=orthogonalEdgeStyle;rounded=0;orthogonalLoop=1;jettySize=auto;html=1;" edge="1" parent="1" source="n2Gzz4PYrOyp2X8KNBNQ-27" target="n2Gzz4PYrOyp2X8KNBNQ-45">
          <mxGeometry relative="1" as="geometry" />
        </mxCell>
        <mxCell id="n2Gzz4PYrOyp2X8KNBNQ-27" value="Hay un monto de deuda guardado por la opcion 1?" style="rhombus;whiteSpace=wrap;html=1;" vertex="1" parent="1">
          <mxGeometry x="590" y="830" width="170" height="150" as="geometry" />
        </mxCell>
        <mxCell id="n2Gzz4PYrOyp2X8KNBNQ-32" style="edgeStyle=orthogonalEdgeStyle;rounded=0;orthogonalLoop=1;jettySize=auto;html=1;entryX=0;entryY=0.5;entryDx=0;entryDy=0;" edge="1" parent="1" source="n2Gzz4PYrOyp2X8KNBNQ-28" target="n2Gzz4PYrOyp2X8KNBNQ-31">
          <mxGeometry relative="1" as="geometry" />
        </mxCell>
        <mxCell id="n2Gzz4PYrOyp2X8KNBNQ-28" value="Solicitar monto de cada cuota" style="rounded=0;whiteSpace=wrap;html=1;" vertex="1" parent="1">
          <mxGeometry x="830" y="485" width="120" height="60" as="geometry" />
        </mxCell>
        <mxCell id="n2Gzz4PYrOyp2X8KNBNQ-30" value="SI" style="text;html=1;align=center;verticalAlign=middle;resizable=0;points=[];autosize=1;strokeColor=none;fillColor=none;" vertex="1" parent="1">
          <mxGeometry x="760" y="490" width="30" height="30" as="geometry" />
        </mxCell>
        <mxCell id="n2Gzz4PYrOyp2X8KNBNQ-31" value="Calcular numero de cuotas y mostrar al usuario, reg menu" style="rounded=0;whiteSpace=wrap;html=1;" vertex="1" parent="1">
          <mxGeometry x="1010" y="485" width="120" height="60" as="geometry" />
        </mxCell>
        <mxCell id="n2Gzz4PYrOyp2X8KNBNQ-33" value="" style="endArrow=classic;html=1;rounded=0;entryX=1;entryY=0.75;entryDx=0;entryDy=0;" edge="1" parent="1" target="n2Gzz4PYrOyp2X8KNBNQ-4">
          <mxGeometry width="50" height="50" relative="1" as="geometry">
            <mxPoint x="1160" y="220" as="sourcePoint" />
            <mxPoint x="840" y="250" as="targetPoint" />
          </mxGeometry>
        </mxCell>
        <mxCell id="n2Gzz4PYrOyp2X8KNBNQ-34" value="" style="endArrow=none;html=1;rounded=0;" edge="1" parent="1">
          <mxGeometry width="50" height="50" relative="1" as="geometry">
            <mxPoint x="1160" y="520" as="sourcePoint" />
            <mxPoint x="1160" y="220" as="targetPoint" />
          </mxGeometry>
        </mxCell>
        <mxCell id="n2Gzz4PYrOyp2X8KNBNQ-35" value="" style="endArrow=none;html=1;rounded=0;exitX=1;exitY=0.5;exitDx=0;exitDy=0;" edge="1" parent="1" source="n2Gzz4PYrOyp2X8KNBNQ-31">
          <mxGeometry width="50" height="50" relative="1" as="geometry">
            <mxPoint x="910" y="370" as="sourcePoint" />
            <mxPoint x="1160" y="520" as="targetPoint" />
          </mxGeometry>
        </mxCell>
        <mxCell id="n2Gzz4PYrOyp2X8KNBNQ-39" style="edgeStyle=orthogonalEdgeStyle;rounded=0;orthogonalLoop=1;jettySize=auto;html=1;" edge="1" parent="1" source="n2Gzz4PYrOyp2X8KNBNQ-36">
          <mxGeometry relative="1" as="geometry">
            <mxPoint x="1160" y="520" as="targetPoint" />
          </mxGeometry>
        </mxCell>
        <mxCell id="n2Gzz4PYrOyp2X8KNBNQ-36" value="Mostrar mensaje instruyendo al usuario de usar el paso 1, reg menu" style="rounded=0;whiteSpace=wrap;html=1;" vertex="1" parent="1">
          <mxGeometry x="605" y="640" width="120" height="60" as="geometry" />
        </mxCell>
        <mxCell id="n2Gzz4PYrOyp2X8KNBNQ-38" value="NO" style="text;html=1;align=center;verticalAlign=middle;resizable=0;points=[];autosize=1;strokeColor=none;fillColor=none;" vertex="1" parent="1">
          <mxGeometry x="630" y="600" width="40" height="30" as="geometry" />
        </mxCell>
        <mxCell id="n2Gzz4PYrOyp2X8KNBNQ-41" value="" style="edgeStyle=orthogonalEdgeStyle;rounded=0;orthogonalLoop=1;jettySize=auto;html=1;" edge="1" parent="1" target="n2Gzz4PYrOyp2X8KNBNQ-43">
          <mxGeometry relative="1" as="geometry">
            <mxPoint x="672.25" y="980" as="sourcePoint" />
          </mxGeometry>
        </mxCell>
        <mxCell id="n2Gzz4PYrOyp2X8KNBNQ-42" style="edgeStyle=orthogonalEdgeStyle;rounded=0;orthogonalLoop=1;jettySize=auto;html=1;" edge="1" parent="1" source="n2Gzz4PYrOyp2X8KNBNQ-43">
          <mxGeometry relative="1" as="geometry">
            <mxPoint x="1160" y="670" as="targetPoint" />
          </mxGeometry>
        </mxCell>
        <mxCell id="n2Gzz4PYrOyp2X8KNBNQ-43" value="Mostrar mensaje instruyendo al usuario de usar el paso 1, reg menu" style="rounded=0;whiteSpace=wrap;html=1;" vertex="1" parent="1">
          <mxGeometry x="612.25" y="1030" width="120" height="60" as="geometry" />
        </mxCell>
        <mxCell id="n2Gzz4PYrOyp2X8KNBNQ-44" value="NO" style="text;html=1;align=center;verticalAlign=middle;resizable=0;points=[];autosize=1;strokeColor=none;fillColor=none;" vertex="1" parent="1">
          <mxGeometry x="637.25" y="990" width="40" height="30" as="geometry" />
        </mxCell>
        <mxCell id="n2Gzz4PYrOyp2X8KNBNQ-48" value="" style="edgeStyle=orthogonalEdgeStyle;rounded=0;orthogonalLoop=1;jettySize=auto;html=1;" edge="1" parent="1" source="n2Gzz4PYrOyp2X8KNBNQ-45" target="n2Gzz4PYrOyp2X8KNBNQ-46">
          <mxGeometry relative="1" as="geometry" />
        </mxCell>
        <mxCell id="n2Gzz4PYrOyp2X8KNBNQ-45" value="Solicitar cantidad de cuotas" style="rounded=0;whiteSpace=wrap;html=1;" vertex="1" parent="1">
          <mxGeometry x="820" y="875" width="120" height="60" as="geometry" />
        </mxCell>
        <mxCell id="n2Gzz4PYrOyp2X8KNBNQ-49" style="edgeStyle=orthogonalEdgeStyle;rounded=0;orthogonalLoop=1;jettySize=auto;html=1;exitX=1;exitY=0.5;exitDx=0;exitDy=0;" edge="1" parent="1" source="n2Gzz4PYrOyp2X8KNBNQ-46">
          <mxGeometry relative="1" as="geometry">
            <mxPoint x="1160" y="904.75" as="targetPoint" />
          </mxGeometry>
        </mxCell>
        <mxCell id="n2Gzz4PYrOyp2X8KNBNQ-46" value="Calcular el monto de cuotas y mostrar al usuario, reg menu" style="rounded=0;whiteSpace=wrap;html=1;" vertex="1" parent="1">
          <mxGeometry x="1000" y="875" width="120" height="60" as="geometry" />
        </mxCell>
        <mxCell id="n2Gzz4PYrOyp2X8KNBNQ-57" value="" style="edgeStyle=orthogonalEdgeStyle;rounded=0;orthogonalLoop=1;jettySize=auto;html=1;" edge="1" parent="1" source="n2Gzz4PYrOyp2X8KNBNQ-51" target="n2Gzz4PYrOyp2X8KNBNQ-56">
          <mxGeometry relative="1" as="geometry" />
        </mxCell>
        <mxCell id="n2Gzz4PYrOyp2X8KNBNQ-61" value="" style="edgeStyle=orthogonalEdgeStyle;rounded=0;orthogonalLoop=1;jettySize=auto;html=1;" edge="1" parent="1" source="n2Gzz4PYrOyp2X8KNBNQ-51" target="n2Gzz4PYrOyp2X8KNBNQ-60">
          <mxGeometry relative="1" as="geometry" />
        </mxCell>
        <mxCell id="n2Gzz4PYrOyp2X8KNBNQ-51" value="Eligio la opcion 4?" style="rhombus;whiteSpace=wrap;html=1;" vertex="1" parent="1">
          <mxGeometry x="352" y="1070" width="146" height="130" as="geometry" />
        </mxCell>
        <mxCell id="n2Gzz4PYrOyp2X8KNBNQ-53" value="NO" style="text;html=1;align=center;verticalAlign=middle;resizable=0;points=[];autosize=1;strokeColor=none;fillColor=none;" vertex="1" parent="1">
          <mxGeometry x="390" y="978" width="40" height="30" as="geometry" />
        </mxCell>
        <mxCell id="n2Gzz4PYrOyp2X8KNBNQ-54" value="SI" style="text;html=1;align=center;verticalAlign=middle;resizable=0;points=[];autosize=1;strokeColor=none;fillColor=none;" vertex="1" parent="1">
          <mxGeometry x="760" y="875" width="30" height="30" as="geometry" />
        </mxCell>
        <mxCell id="n2Gzz4PYrOyp2X8KNBNQ-55" value="SI" style="text;html=1;align=center;verticalAlign=middle;resizable=0;points=[];autosize=1;strokeColor=none;fillColor=none;" vertex="1" parent="1">
          <mxGeometry x="505" y="875" width="30" height="30" as="geometry" />
        </mxCell>
        <mxCell id="n2Gzz4PYrOyp2X8KNBNQ-56" value="Mostrar mensaje de despedida, cerrar programa" style="rounded=0;whiteSpace=wrap;html=1;" vertex="1" parent="1">
          <mxGeometry x="612.25" y="1105" width="120" height="60" as="geometry" />
        </mxCell>
        <mxCell id="n2Gzz4PYrOyp2X8KNBNQ-58" value="SI" style="text;html=1;align=center;verticalAlign=middle;resizable=0;points=[];autosize=1;strokeColor=none;fillColor=none;" vertex="1" parent="1">
          <mxGeometry x="505" y="1108" width="30" height="30" as="geometry" />
        </mxCell>
        <mxCell id="n2Gzz4PYrOyp2X8KNBNQ-64" value="" style="edgeStyle=orthogonalEdgeStyle;rounded=0;orthogonalLoop=1;jettySize=auto;html=1;" edge="1" parent="1" source="n2Gzz4PYrOyp2X8KNBNQ-60" target="n2Gzz4PYrOyp2X8KNBNQ-63">
          <mxGeometry relative="1" as="geometry" />
        </mxCell>
        <mxCell id="n2Gzz4PYrOyp2X8KNBNQ-66" value="" style="edgeStyle=orthogonalEdgeStyle;rounded=0;orthogonalLoop=1;jettySize=auto;html=1;" edge="1" parent="1" source="n2Gzz4PYrOyp2X8KNBNQ-60" target="n2Gzz4PYrOyp2X8KNBNQ-65">
          <mxGeometry relative="1" as="geometry" />
        </mxCell>
        <mxCell id="n2Gzz4PYrOyp2X8KNBNQ-60" value="Eligio opcion invalida?" style="rhombus;whiteSpace=wrap;html=1;" vertex="1" parent="1">
          <mxGeometry x="352" y="1240" width="146" height="130" as="geometry" />
        </mxCell>
        <mxCell id="n2Gzz4PYrOyp2X8KNBNQ-62" value="NO" style="text;html=1;align=center;verticalAlign=middle;resizable=0;points=[];autosize=1;strokeColor=none;fillColor=none;" vertex="1" parent="1">
          <mxGeometry x="390" y="1210" width="40" height="30" as="geometry" />
        </mxCell>
        <mxCell id="n2Gzz4PYrOyp2X8KNBNQ-63" value="Mostrar mensaje opcion invalida e ir a menu" style="whiteSpace=wrap;html=1;" vertex="1" parent="1">
          <mxGeometry x="591" y="1275" width="120" height="60" as="geometry" />
        </mxCell>
        <mxCell id="n2Gzz4PYrOyp2X8KNBNQ-65" value="regresar al ciclo" style="rounded=0;whiteSpace=wrap;html=1;" vertex="1" parent="1">
          <mxGeometry x="365" y="1400" width="120" height="60" as="geometry" />
        </mxCell>
        <mxCell id="n2Gzz4PYrOyp2X8KNBNQ-67" value="" style="endArrow=none;html=1;rounded=0;entryX=0;entryY=0.5;entryDx=0;entryDy=0;" edge="1" parent="1" target="n2Gzz4PYrOyp2X8KNBNQ-65">
          <mxGeometry width="50" height="50" relative="1" as="geometry">
            <mxPoint x="320" y="1430" as="sourcePoint" />
            <mxPoint x="620" y="1200" as="targetPoint" />
          </mxGeometry>
        </mxCell>
        <mxCell id="n2Gzz4PYrOyp2X8KNBNQ-68" value="" style="endArrow=none;html=1;rounded=0;" edge="1" parent="1">
          <mxGeometry width="50" height="50" relative="1" as="geometry">
            <mxPoint x="320" y="1430" as="sourcePoint" />
            <mxPoint x="310" y="350" as="targetPoint" />
          </mxGeometry>
        </mxCell>
        <mxCell id="n2Gzz4PYrOyp2X8KNBNQ-69" value="" style="endArrow=classic;html=1;rounded=0;entryX=0;entryY=0.5;entryDx=0;entryDy=0;" edge="1" parent="1" target="n2Gzz4PYrOyp2X8KNBNQ-7">
          <mxGeometry width="50" height="50" relative="1" as="geometry">
            <mxPoint x="310" y="350" as="sourcePoint" />
            <mxPoint x="760" y="470" as="targetPoint" />
          </mxGeometry>
        </mxCell>
        <mxCell id="n2Gzz4PYrOyp2X8KNBNQ-71" value="" style="endArrow=none;html=1;rounded=0;entryX=0.5;entryY=1;entryDx=0;entryDy=0;" edge="1" parent="1" target="n2Gzz4PYrOyp2X8KNBNQ-63">
          <mxGeometry width="50" height="50" relative="1" as="geometry">
            <mxPoint x="650" y="1480" as="sourcePoint" />
            <mxPoint x="640" y="1420" as="targetPoint" />
          </mxGeometry>
        </mxCell>
        <mxCell id="n2Gzz4PYrOyp2X8KNBNQ-72" value="" style="endArrow=none;html=1;rounded=0;" edge="1" parent="1">
          <mxGeometry width="50" height="50" relative="1" as="geometry">
            <mxPoint x="280" y="1480" as="sourcePoint" />
            <mxPoint x="650" y="1480" as="targetPoint" />
          </mxGeometry>
        </mxCell>
        <mxCell id="n2Gzz4PYrOyp2X8KNBNQ-73" value="" style="endArrow=none;html=1;rounded=0;" edge="1" parent="1">
          <mxGeometry width="50" height="50" relative="1" as="geometry">
            <mxPoint x="280" y="1480" as="sourcePoint" />
            <mxPoint x="280" y="230" as="targetPoint" />
          </mxGeometry>
        </mxCell>
        <mxCell id="n2Gzz4PYrOyp2X8KNBNQ-74" value="" style="endArrow=classic;html=1;rounded=0;entryX=0;entryY=0.5;entryDx=0;entryDy=0;" edge="1" parent="1" target="n2Gzz4PYrOyp2X8KNBNQ-4">
          <mxGeometry width="50" height="50" relative="1" as="geometry">
            <mxPoint x="280" y="230" as="sourcePoint" />
            <mxPoint x="640" y="340" as="targetPoint" />
          </mxGeometry>
        </mxCell>
        <mxCell id="n2Gzz4PYrOyp2X8KNBNQ-75" value="FIN" style="ellipse;whiteSpace=wrap;html=1;" vertex="1" parent="1">
          <mxGeometry x="365" y="1540" width="120" height="80" as="geometry" />
        </mxCell>
        <mxCell id="n2Gzz4PYrOyp2X8KNBNQ-77" value="" style="endArrow=classic;html=1;rounded=0;entryX=0.5;entryY=0;entryDx=0;entryDy=0;" edge="1" parent="1" target="n2Gzz4PYrOyp2X8KNBNQ-75">
          <mxGeometry width="50" height="50" relative="1" as="geometry">
            <mxPoint x="430" y="1520" as="sourcePoint" />
            <mxPoint x="850" y="1340" as="targetPoint" />
          </mxGeometry>
        </mxCell>
        <mxCell id="n2Gzz4PYrOyp2X8KNBNQ-78" value="" style="endArrow=none;html=1;rounded=0;" edge="1" parent="1">
          <mxGeometry width="50" height="50" relative="1" as="geometry">
            <mxPoint x="430" y="1520" as="sourcePoint" />
            <mxPoint x="800" y="1520" as="targetPoint" />
          </mxGeometry>
        </mxCell>
        <mxCell id="n2Gzz4PYrOyp2X8KNBNQ-79" value="" style="endArrow=none;html=1;rounded=0;" edge="1" parent="1">
          <mxGeometry width="50" height="50" relative="1" as="geometry">
            <mxPoint x="800" y="1520" as="sourcePoint" />
            <mxPoint x="800" y="1140" as="targetPoint" />
          </mxGeometry>
        </mxCell>
        <mxCell id="n2Gzz4PYrOyp2X8KNBNQ-80" value="" style="endArrow=none;html=1;rounded=0;exitX=1;exitY=0.5;exitDx=0;exitDy=0;" edge="1" parent="1" source="n2Gzz4PYrOyp2X8KNBNQ-56">
          <mxGeometry width="50" height="50" relative="1" as="geometry">
            <mxPoint x="800" y="1390" as="sourcePoint" />
            <mxPoint x="800" y="1140" as="targetPoint" />
          </mxGeometry>
        </mxCell>
      </root>
    </mxGraphModel>
  </diagram>
</mxfile>
